<svg xmlns="http://www.w3.org/2000/svg" width="600" height="600" viewBox="0 0 600 600">
  <!-- Dark olive blobs -->
  <path d="M45,70 C75,15 170,5 210,55 C250,105 230,170 175,185 C120,200 15,135 45,70Z" fill="#3d4a2d" opacity="0.22"/>
  <path d="M380,40 C430,10 510,30 530,90 C550,150 500,190 440,180 C380,170 330,70 380,40Z" fill="#3d4a2d" opacity="0.18"/>
  <path d="M150,330 C190,280 270,290 290,340 C310,390 270,440 220,445 C170,450 110,380 150,330Z" fill="#3d4a2d" opacity="0.20"/>
  <path d="M460,320 C510,290 570,310 585,370 C600,430 560,470 500,460 C440,450 410,350 460,320Z" fill="#3d4a2d" opacity="0.18"/>

  <!-- Brown blobs — larger and more prominent -->
  <path d="M120,100 C155,60 235,55 260,120 C285,185 230,235 170,230 C110,225 85,140 120,100Z" fill="#6b5340" opacity="0.24"/>
  <path d="M400,120 C445,80 530,95 545,160 C560,225 505,265 445,250 C385,235 355,160 400,120Z" fill="#6b5340" opacity="0.22"/>
  <path d="M280,370 C325,325 415,340 430,410 C445,480 385,520 320,510 C255,500 235,415 280,370Z" fill="#5e4735" opacity="0.26"/>
  <path d="M30,350 C70,310 150,325 160,385 C170,445 120,480 65,470 C10,460 -10,390 30,350Z" fill="#6b5340" opacity="0.22"/>
  <path d="M500,400 C540,365 600,385 608,445 C616,505 570,535 520,525 C470,515 460,435 500,400Z" fill="#5e4735" opacity="0.24"/>
  <path d="M200,180 C230,150 290,160 300,200 C310,240 270,265 230,255 C190,245 170,210 200,180Z" fill="#7a6248" opacity="0.18"/>

  <!-- Medium green blobs -->
  <path d="M260,90 C300,55 365,70 375,120 C385,170 345,205 295,200 C245,195 220,125 260,90Z" fill="#556b3e" opacity="0.18"/>
  <path d="M70,210 C110,175 185,185 195,235 C205,285 155,315 105,305 C55,295 30,245 70,210Z" fill="#556b3e" opacity="0.16"/>
  <path d="M340,220 C375,190 440,205 450,255 C460,305 415,335 370,325 C325,315 305,250 340,220Z" fill="#556b3e" opacity="0.18"/>
  <path d="M490,490 C525,455 585,470 593,515 C601,560 565,590 520,582 C475,574 455,525 490,490Z" fill="#556b3e" opacity="0.16"/>

  <!-- Tan/khaki blobs -->
  <path d="M310,140 C350,110 415,130 420,175 C425,220 380,248 335,238 C290,228 270,170 310,140Z" fill="#b5a484" opacity="0.14"/>
  <path d="M80,470 C120,435 190,450 200,500 C210,550 165,578 118,568 C71,558 40,505 80,470Z" fill="#b5a484" opacity="0.12"/>
  <path d="M440,470 C475,440 535,455 543,500 C551,545 510,568 468,558 C426,548 405,500 440,470Z" fill="#b5a484" opacity="0.13"/>

  <!-- Tigerstripe streaks — dark olive, irregular wavy paths -->
  <path d="M20,95 C50,88 85,100 120,92 C155,84 180,96 215,90 C250,84 275,95 305,88" fill="none" stroke="#3d4a2d" stroke-width="6" opacity="0.18" stroke-linecap="round"/>
  <path d="M350,175 C385,165 415,180 450,170 C485,160 510,175 545,168 C575,162 595,172 610,165" fill="none" stroke="#3d4a2d" stroke-width="5" opacity="0.15" stroke-linecap="round"/>
  <path d="M-10,310 C30,298 70,315 115,305 C160,295 195,312 240,302 C280,293 310,308 345,298" fill="none" stroke="#2c3423" stroke-width="7" opacity="0.16" stroke-linecap="round"/>
  <path d="M260,450 C300,440 340,455 380,445 C420,435 455,450 495,440 C530,432 560,445 595,438" fill="none" stroke="#3d4a2d" stroke-width="5" opacity="0.14" stroke-linecap="round"/>
  <path d="M10,555 C55,542 95,558 140,548 C185,538 220,555 265,545 C305,537 335,550 370,542" fill="none" stroke="#2c3423" stroke-width="6" opacity="0.16" stroke-linecap="round"/>

  <!-- Tigerstripe streaks — brown -->
  <path d="M50,155 C90,143 130,160 175,148 C220,136 255,152 295,142 C335,132 365,148 400,138" fill="none" stroke="#6b5340" stroke-width="7" opacity="0.20" stroke-linecap="round"/>
  <path d="M320,60 C355,50 390,65 425,55 C460,45 490,60 525,52 C555,45 580,58 610,50" fill="none" stroke="#5e4735" stroke-width="5" opacity="0.17" stroke-linecap="round"/>
  <path d="M-15,420 C25,408 65,425 110,413 C155,401 190,418 235,408 C275,399 305,415 345,405" fill="none" stroke="#6b5340" stroke-width="6" opacity="0.19" stroke-linecap="round"/>
  <path d="M200,260 C240,248 280,265 320,255 C360,245 395,260 435,250 C470,242 500,256 540,248" fill="none" stroke="#5e4735" stroke-width="5" opacity="0.16" stroke-linecap="round"/>
  <path d="M100,520 C145,508 185,525 230,515 C275,505 310,520 355,512 C395,504 425,518 465,510" fill="none" stroke="#6b5340" stroke-width="7" opacity="0.18" stroke-linecap="round"/>

  <!-- Tigerstripe streaks — black/very dark -->
  <path d="M80,45 C115,35 145,50 180,40 C215,30 245,45 280,37 C310,30 340,42 370,35" fill="none" stroke="#1e2518" stroke-width="4" opacity="0.12" stroke-linecap="round"/>
  <path d="M400,280 C440,268 475,285 515,275 C550,266 580,280 610,272" fill="none" stroke="#1e2518" stroke-width="3.5" opacity="0.10" stroke-linecap="round"/>
  <path d="M-10,480 C30,468 65,484 105,474 C145,464 180,480 220,470 C255,462 285,476 320,468" fill="none" stroke="#1e2518" stroke-width="4" opacity="0.11" stroke-linecap="round"/>

  <!-- Irregular jagged spots — organic splatter shapes -->
  <path d="M95,52 C102,38 118,35 128,42 C138,49 142,60 136,72 C125,80 118,85 108,78 C96,72 88,66 95,52Z" fill="#2c3423" opacity="0.16"/>
  <path d="M520,80 C530,65 548,60 560,70 C572,80 575,95 565,105 C552,112 540,115 530,106 C520,97 512,90 520,80Z" fill="#5e4735" opacity="0.18"/>
  <path d="M185,165 C195,148 215,145 228,155 C238,168 235,185 222,195 C208,200 195,198 188,185 C182,175 178,168 185,165Z" fill="#2c3423" opacity="0.14"/>
  <path d="M465,245 C478,230 498,228 510,240 C520,255 515,272 500,280 C485,285 472,278 466,265 C460,252 458,242 465,245Z" fill="#6b5340" opacity="0.18"/>
  <path d="M100,295 C112,278 132,275 145,287 C155,302 148,320 133,328 C118,332 106,325 100,312 C95,300 94,290 100,295Z" fill="#5e4735" opacity="0.16"/>
  <path d="M260,275 C272,260 290,257 302,268 C312,280 308,298 294,305 C280,310 268,304 262,292 C256,280 254,270 260,275Z" fill="#2c3423" opacity="0.15"/>
  <path d="M400,375 C412,358 432,355 445,367 C455,382 448,400 433,408 C418,413 405,406 400,393 C396,382 394,372 400,375Z" fill="#6b5340" opacity="0.17"/>
  <path d="M175,455 C188,438 208,435 222,448 C232,462 226,480 210,488 C195,493 182,486 176,472 C171,460 170,450 175,455Z" fill="#2c3423" opacity="0.15"/>
  <path d="M555,525 C568,508 588,505 600,518 C610,532 604,550 588,558 C573,563 560,556 555,543 C550,530 548,520 555,525Z" fill="#5e4735" opacity="0.17"/>
  <path d="M35,545 C48,528 68,525 82,538 C92,552 86,570 70,578 C55,583 42,576 36,562 C31,550 30,540 35,545Z" fill="#6b5340" opacity="0.16"/>
  <path d="M345,545 C358,528 378,525 392,538 C402,552 396,570 380,578 C365,583 352,576 346,562 C341,550 340,540 345,545Z" fill="#2c3423" opacity="0.14"/>

  <!-- Wrap-around elements for tiling -->
  <path d="M-30,250 C10,215 70,230 75,275 C80,320 40,345 0,335 C-40,325 -70,285 -30,250Z" fill="#6b5340" opacity="0.20"/>
  <path d="M570,250 C610,215 670,230 675,275 C680,320 640,345 600,335 C560,325 530,285 570,250Z" fill="#6b5340" opacity="0.20"/>
  <path d="M250,-30 C290,-65 350,-50 360,-5 C370,40 330,70 285,60 C240,50 210,5 250,-30Z" fill="#556b3e" opacity="0.16"/>
  <path d="M250,570 C290,535 350,550 360,595 C370,640 330,670 285,660 C240,650 210,605 250,570Z" fill="#556b3e" opacity="0.16"/>
  <path d="M-15,60 C25,48 60,65 100,55 C140,45 170,60 210,50" fill="none" stroke="#5e4735" stroke-width="5" opacity="0.16" stroke-linecap="round"/>
  <path d="M400,585 C440,573 475,590 515,580 C550,572 580,585 610,578" fill="none" stroke="#6b5340" stroke-width="6" opacity="0.17" stroke-linecap="round"/>
</svg>
